<?xml version="1.0" encoding="UTF-8" standalone="no"?>
<!DOCTYPE svg PUBLIC "-//W3C//DTD SVG 1.1//EN" "http://www.w3.org/Graphics/SVG/1.1/DTD/svg11.dtd">
<svg width="100%" height="100%" viewBox="0 0 1000 1000" version="1.1" xmlns="http://www.w3.org/2000/svg" xmlns:xlink="http://www.w3.org/1999/xlink" xml:space="preserve" xmlns:serif="http://www.serif.com/" style="fill-rule:evenodd;clip-rule:evenodd;stroke-linejoin:round;stroke-miterlimit:2;">
    <g transform="matrix(1.043841,0,0,1.043841,-19.832985,-4.175365)">
        <path d="M977,100.123L977,865.877C977,918.929 933.929,962 880.877,962L115.123,962C62.071,962 19,918.929 19,865.877L19,100.123C19,47.071 62.071,4 115.123,4L880.877,4C933.929,4 977,47.071 977,100.123Z" style="fill:url(#_Linear1);"/>
    </g>
    <g transform="matrix(1.187941,0,0,1.187941,-64.755798,-48.484908)">
        <g transform="matrix(3.155337,0,0,3.155337,-724.935086,-800.834597)">
            <g transform="matrix(50,0,0,50,504.08319,418.318565)">
            </g>
            <text x="253.933px" y="418.319px" style="font-family:'Nexa-Heavy', 'Nexa';font-weight:900;font-size:50px;fill:white;">MONIT<tspan x="426.583px " y="418.319px ">O</tspan>R</text>
        </g>
        <g transform="matrix(1.755695,0,0,1.755695,-364.779119,-337.131385)">
            <text x="253.933px" y="418.319px" style="font-family:'Nexa-Heavy', 'Nexa';font-weight:900;font-size:50px;fill:white;">L<tspan x="284.233px " y="418.319px ">u</tspan>men</text>
            <g transform="matrix(50,0,0,50,502.28319,418.318565)">
            </g>
            <text x="420.883px" y="418.319px" style="font-family:'Nexa-Heavy', 'Nexa';font-weight:900;font-size:50px;fill:rgb(132,59,221);">MC</text>
        </g>
    </g>
    <defs>
        <linearGradient id="_Linear1" x1="0" y1="0" x2="1" y2="0" gradientUnits="userSpaceOnUse" gradientTransform="matrix(958,-968.538,968.538,958,19.958,974.454)"><stop offset="0" style="stop-color:rgb(87,31,74);stop-opacity:1"/><stop offset="1" style="stop-color:rgb(13,0,50);stop-opacity:1"/></linearGradient>
    </defs>
</svg>
